<?xml version="1.0" encoding="UTF-8"?>
<svg xmlns="http://www.w3.org/2000/svg" xmlns:xlink="http://www.w3.org/1999/xlink" width="123px" height="28px" viewBox="0 0 123 28" version="1.1">
<defs>
<clipPath id="clip1">
  <path d="M 58.703125 7.679688 L 79 7.679688 L 79 28 L 58.703125 28 Z M 58.703125 7.679688 "/>
</clipPath>
<clipPath id="clip2">
  <path d="M 102.261719 7.679688 L 122.839844 7.679688 L 122.839844 28 L 102.261719 28 Z M 102.261719 7.679688 "/>
</clipPath>
</defs>
<g id="surface1">
<path style=" stroke:none;fill-rule:nonzero;fill:rgb(100%,14.901961%,36.862745%);fill-opacity:1;" d="M 35.488281 7.828125 C 37.574219 7.828125 39.292969 8.53125 40.65625 9.929688 C 42.015625 11.332031 42.695312 13.269531 42.695312 15.734375 L 42.695312 27.460938 L 37.777344 27.460938 L 37.777344 16.34375 C 37.777344 15.070312 37.429688 14.097656 36.742188 13.425781 C 36.058594 12.75 35.140625 12.410156 34 12.410156 C 32.726562 12.410156 31.707031 12.808594 30.945312 13.59375 C 30.183594 14.382812 29.804688 15.570312 29.804688 17.148438 L 29.804688 27.460938 L 24.882812 27.460938 L 24.882812 8.367188 L 29.804688 8.367188 L 29.804688 10.507812 C 31 8.722656 32.890625 7.832031 35.484375 7.832031 "/>
<path style=" stroke:none;fill-rule:nonzero;fill:rgb(100%,14.901961%,36.862745%);fill-opacity:1;" d="M 57.027344 13.101562 L 52.71875 13.101562 L 52.71875 21.046875 C 52.71875 21.710938 52.882812 22.191406 53.214844 22.5 C 53.542969 22.804688 54.023438 22.976562 54.664062 23.015625 C 55.296875 23.054688 56.085938 23.046875 57.027344 23 L 57.027344 27.464844 C 53.648438 27.847656 51.265625 27.527344 49.878906 26.507812 C 48.492188 25.492188 47.800781 23.671875 47.800781 21.046875 L 47.800781 13.101562 L 44.484375 13.101562 L 44.484375 8.367188 L 47.800781 8.367188 L 47.800781 4.507812 L 52.722656 3.015625 L 52.722656 8.363281 L 57.03125 8.363281 L 57.03125 13.101562 Z M 57.027344 13.101562 "/>
<g clip-path="url(#clip1)" clip-rule="nonzero">
<path style=" stroke:none;fill-rule:nonzero;fill:rgb(100%,14.901961%,36.862745%);fill-opacity:1;" d="M 76.046875 25.074219 C 74.085938 27.023438 71.695312 27.996094 68.875 27.996094 C 66.058594 27.996094 63.671875 27.023438 61.726562 25.074219 C 59.78125 23.128906 58.808594 20.738281 58.808594 17.914062 C 58.808594 15.085938 59.78125 12.699219 61.726562 10.75 C 63.671875 8.800781 66.054688 7.828125 68.875 7.828125 C 71.699219 7.828125 74.089844 8.800781 76.046875 10.75 C 78.003906 12.699219 78.984375 15.085938 78.984375 17.914062 C 78.984375 20.738281 78.003906 23.128906 76.046875 25.074219 Z M 65.199219 21.691406 C 66.175781 22.6875 67.402344 23.183594 68.875 23.183594 C 70.351562 23.183594 71.585938 22.6875 72.578125 21.691406 C 73.570312 20.699219 74.066406 19.4375 74.066406 17.914062 C 74.066406 16.386719 73.570312 15.125 72.578125 14.132812 C 71.585938 13.136719 70.351562 12.640625 68.875 12.640625 C 67.402344 12.640625 66.175781 13.136719 65.199219 14.132812 C 64.21875 15.128906 63.730469 16.386719 63.730469 17.914062 C 63.730469 19.4375 64.21875 20.699219 65.199219 21.691406 Z M 65.199219 21.691406 "/>
</g>
<path style=" stroke:none;fill-rule:nonzero;fill:rgb(100%,14.901961%,36.862745%);fill-opacity:1;" d="M 86.804688 11.652344 C 87.257812 10.429688 88.015625 9.511719 89.070312 8.902344 C 90.128906 8.289062 91.300781 7.984375 92.597656 7.984375 L 92.597656 13.484375 C 91.097656 13.304688 89.757812 13.613281 88.578125 14.402344 C 87.394531 15.191406 86.804688 16.503906 86.804688 18.335938 L 86.804688 27.464844 L 81.882812 27.464844 L 81.882812 8.367188 L 86.804688 8.367188 Z M 86.804688 11.652344 "/>
<path style=" stroke:none;fill-rule:nonzero;fill:rgb(100%,14.901961%,36.862745%);fill-opacity:1;" d="M 97.042969 6.074219 C 96.230469 6.074219 95.527344 5.773438 94.929688 5.175781 C 94.328125 4.578125 94.035156 3.871094 94.035156 3.058594 C 94.035156 2.246094 94.332031 1.527344 94.929688 0.917969 C 95.527344 0.308594 96.230469 0 97.042969 0 C 97.855469 0 98.601562 0.308594 99.199219 0.917969 C 99.792969 1.527344 100.09375 2.242188 100.09375 3.058594 C 100.09375 3.875 99.792969 4.578125 99.199219 5.175781 C 98.601562 5.773438 97.882812 6.074219 97.042969 6.074219 Z M 94.605469 8.367188 L 99.523438 8.367188 L 99.523438 27.464844 L 94.605469 27.464844 Z M 94.605469 8.367188 "/>
<g clip-path="url(#clip2)" clip-rule="nonzero">
<path style=" stroke:none;fill-rule:nonzero;fill:rgb(100%,14.901961%,36.862745%);fill-opacity:1;" d="M 117.921875 8.367188 L 122.839844 8.367188 L 122.839844 27.464844 L 117.921875 27.464844 L 117.921875 25.210938 C 116.449219 27.070312 114.375 28 111.707031 28 C 109.035156 28 106.984375 27.027344 105.164062 25.078125 C 103.34375 23.128906 102.4375 20.742188 102.4375 17.914062 C 102.4375 15.089844 103.347656 12.703125 105.164062 10.753906 C 106.984375 8.804688 109.160156 7.832031 111.707031 7.832031 C 114.375 7.832031 116.449219 8.761719 117.921875 10.621094 Z M 108.84375 21.792969 C 109.832031 22.800781 111.09375 23.300781 112.617188 23.300781 C 114.140625 23.300781 115.410156 22.800781 116.414062 21.792969 C 117.414062 20.789062 117.917969 19.496094 117.917969 17.914062 C 117.917969 16.335938 117.414062 15.046875 116.414062 14.039062 C 115.410156 13.03125 114.144531 12.53125 112.617188 12.53125 C 111.089844 12.53125 109.832031 13.03125 108.84375 14.039062 C 107.851562 15.042969 107.355469 16.335938 107.355469 17.914062 C 107.355469 19.496094 107.851562 20.789062 108.84375 21.792969 Z M 108.84375 21.792969 "/>
</g>
<path style=" stroke:none;fill-rule:nonzero;fill:rgb(100%,14.901961%,36.862745%);fill-opacity:1;" d="M 21.761719 1.257812 L 10.960938 1.257812 L 10.960938 6.492188 L 21.761719 6.492188 Z M 21.761719 1.257812 "/>
<path style=" stroke:none;fill-rule:nonzero;fill:rgb(100%,14.901961%,36.862745%);fill-opacity:1;" d="M 10.960938 6.492188 L 0.160156 6.492188 L 0.160156 11.726562 L 10.960938 11.726562 Z M 10.960938 6.492188 "/>
<path style=" stroke:none;fill-rule:nonzero;fill:rgb(100%,14.901961%,36.862745%);fill-opacity:1;" d="M 10.960938 16.964844 L 0.160156 16.964844 L 0.160156 22.199219 L 10.960938 22.199219 Z M 10.960938 16.964844 "/>
<path style=" stroke:none;fill-rule:nonzero;fill:rgb(100%,14.901961%,36.862745%);fill-opacity:1;" d="M 21.761719 11.726562 L 10.960938 11.726562 L 10.960938 16.964844 L 21.761719 16.964844 Z M 21.761719 11.726562 "/>
<path style=" stroke:none;fill-rule:nonzero;fill:rgb(100%,14.901961%,36.862745%);fill-opacity:1;" d="M 21.761719 22.199219 L 10.960938 22.199219 L 10.960938 27.433594 L 21.761719 27.433594 Z M 21.761719 22.199219 "/>
</g>
</svg>
